<svg xmlns="http://www.w3.org/2000/svg" viewBox="0 0 64 64">
<defs><linearGradient id="g" x1="0" y1="0" x2="1" y2="1"><stop stop-color="#E9D9FF"/><stop offset=".5" stop-color="#A97CFF"/><stop offset="1" stop-color="#7B63F6"/></linearGradient></defs>
<path d="M32 43C19 43 10 36 8 26c9 0 17 4 24 17z" fill="url(#g)" opacity=".72"/>
<path d="M32 43c13 0 22-7 24-17-9 0-17 4-24 17z" fill="url(#g)" opacity=".72"/>
<path d="M32 41c-8-7-9-17 0-29 9 12 8 22 0 29z" fill="url(#g)"/>
<path d="M18 38c-5-7-5-13-2-19 7 4 11 9 16 20" fill="url(#g)" opacity=".55"/>
<path d="M46 38c5-7 5-13 2-19-7 4-11 9-16 20" fill="url(#g)" opacity=".55"/>
</svg>